# xmcd
#
# Track frame offsets: 
#        150
#        12797
#        28747
#        42087
#        56600
#        76175
#        90532
#        104192
#        119420
#        134077
#        147412
#        160482
#        175147
#        192205
#        206535
#        221562
#        235112
#        250557
#
# Disc length: 3539 seconds
#
# Revision: 2
# Processed by: cddbd v1.5.2PL0 Copyright (c) Steve Scherf et al.
# Submitted via: ExactAudioCopy v1.2
#
DISCID=fc0dd112
DTITLE=Truck Stop - Golden Stars
DYEAR=1997
DGENRE=Country
TTITLE0=Der wilde, wilde Westen
TTITLE1=Ich möcht' so gern Dave Dudley hör'n
TTITLE2=Take It Easy, altes Haus
TTITLE3=Mein Stiefel kommt in' Himmel
TTITLE4=Nein danke, ich rauch nicht mehr
TTITLE5=Tanz mit mir
TTITLE6=Hilly Billy Country Lilly
TTITLE7=Es tut so gut
TTITLE8=Ein Tag wie ein Freund
TTITLE9=Arizona-Arizona
TTITLE10=Die Frau mit dem Gurt
TTITLE11=Louisiana Ladies
TTITLE12=Vater und Sohn
TTITLE13=Angeln entspannt
TTITLE14=Easy Rider
TTITLE15=Das Mädchen wird schöner mit jedem Glas Bier
TTITLE16=Square Dance - Darling
TTITLE17=Lass dir nie den Tag verderben
EXTD=
EXTT0=
EXTT1=
EXTT2=
EXTT3=
EXTT4=
EXTT5=
EXTT6=
EXTT7=
EXTT8=
EXTT9=
EXTT10=
EXTT11=
EXTT12=
EXTT13=
EXTT14=
EXTT15=
EXTT16=
EXTT17=
PLAYORDER=
